<svg width="60" height="60" viewBox="0 0 60 60" fill="none" xmlns="http://www.w3.org/2000/svg">
<g clip-path="url(#clip0_39_11)">
<path fill-rule="evenodd" clip-rule="evenodd" d="M30 6.6C30 2.95492 27.0451 0 23.4 0H6.6C2.95492 0 0 2.95492 0 6.6V23.6158C0 27.2609 2.95492 30.2157 6.6 30.2157H23.4C27.0451 30.2157 30 33.1707 30 36.8157V53.4C30 57.045 32.955 60 36.6 60H53.4C57.045 60 60 57.045 60 53.4V36.384C60 32.739 57.045 29.7842 53.4 29.7842H36.6C32.955 29.7842 30 26.8292 30 23.1842V6.6Z" fill="#93DD2C"/>
</g>
<path d="M14.18 10.9V16.96H17.756V19H13.88C13.2 19 12.708 18.832 12.404 18.496C12.108 18.16 11.96 17.708 11.96 17.14V10.9H14.18Z" fill="#F4F4F6"/>
<path d="M45.12 49H42.9V42.76C42.9 42.192 43.048 41.74 43.344 41.404C43.648 41.068 44.14 40.9 44.82 40.9H48.9V42.94H45.12V49ZM48.624 46.552H44.64L44.34 44.512H48.624V46.552Z" fill="#F4F4F6"/>
<defs>
<clipPath id="clip0_39_11">
<rect width="60" height="60" fill="white"/>
</clipPath>
</defs>
</svg>
