<svg width="161" height="50" viewBox="0 0 161 50" fill="none" xmlns="http://www.w3.org/2000/svg">
<path d="M10.5562 49.3441H5.11315V27.2622H0V22.5616H5.11315V19.7741C5.11315 16.8225 6.01116 14.4358 7.80717 12.6139C9.60319 10.7555 12.1506 9.82631 15.4494 9.82631C17.3187 9.82631 18.9498 10.1543 20.3426 10.8102V15.948C19.0231 15.1464 17.557 14.7455 15.9442 14.7455C12.3522 14.7455 10.5562 16.4217 10.5562 19.7741V22.5616H20.0128V27.2622H10.5562V49.3441Z" fill="#93DD2C"/>
<path d="M36.8044 49.9453C32.6993 49.9453 29.2905 48.6153 26.5781 45.9553C23.8658 43.2953 22.5096 39.9065 22.5096 35.7889C22.5096 31.8535 23.7925 28.5376 26.3582 25.8411C28.924 23.1447 32.1861 21.7964 36.1447 21.7964C40.1399 21.7964 43.3287 23.0718 45.7112 25.6225C48.1303 28.1368 49.3399 31.3069 49.3399 35.133V37.3193H27.7877C28.0809 39.6514 29.0522 41.5462 30.7017 43.0038C32.3511 44.4249 34.367 45.1354 36.7495 45.1354C40.4148 45.1354 43.0355 43.6779 44.6116 40.7628L48.7901 42.8944C47.6172 45.1901 45.9861 46.9391 43.8969 48.1416C41.8443 49.3441 39.4801 49.9453 36.8044 49.9453ZM28.0076 33.8212H43.8969C43.7869 31.6713 43.0172 29.9405 41.5877 28.6287C40.1582 27.3169 38.3256 26.661 36.0897 26.661C33.8905 26.661 32.0578 27.3351 30.5917 28.6833C29.1622 30.0316 28.3009 31.7442 28.0076 33.8212Z" fill="#93DD2C"/>
<path d="M78.71 46.01C75.961 48.67 72.5522 50 68.4837 50C64.4152 50 61.0064 48.6518 58.2574 45.9553C55.5084 43.2224 54.1339 39.9065 54.1339 36.0075C54.1339 31.9264 55.4534 28.5558 58.0925 25.8958C60.7682 23.2358 64.1403 21.9057 68.2088 21.9057C71.8741 21.9057 74.9164 23.2358 77.3355 25.8958L77.3905 10.2636H82.8335V36.0075C82.8335 39.9794 81.459 43.3135 78.71 46.01ZM62.161 42.2932C63.8837 44.0423 65.9913 44.9168 68.4837 44.9168C70.9761 44.9168 73.0837 44.0423 74.8064 42.2932C76.5291 40.5442 77.3905 38.4307 77.3905 35.9529C77.3905 33.5115 76.5291 31.4163 74.8064 29.6672C73.0837 27.9181 70.9761 27.0436 68.4837 27.0436C65.9913 27.0436 63.8837 27.9181 62.161 29.6672C60.4383 31.4163 59.5769 33.5115 59.5769 35.9529C59.5769 38.4307 60.4383 40.5442 62.161 42.2932Z" fill="#93DD2C"/>
<path d="M103.221 49.9453C99.1156 49.9453 95.7069 48.6153 92.9945 45.9553C90.2822 43.2953 88.926 39.9065 88.926 35.7889C88.926 31.8535 90.2089 28.5376 92.7746 25.8411C95.3403 23.1447 98.6025 21.7964 102.561 21.7964C106.556 21.7964 109.745 23.0718 112.128 25.6225C114.547 28.1368 115.756 31.3069 115.756 35.133V37.3193H94.2041C94.4973 39.6514 95.4686 41.5462 97.118 43.0038C98.7674 44.4249 100.783 45.1354 103.166 45.1354C106.831 45.1354 109.452 43.6779 111.028 40.7628L115.206 42.8944C114.034 45.1901 112.402 46.9391 110.313 48.1416C108.261 49.3441 105.896 49.9453 103.221 49.9453ZM94.424 33.8212H110.313C110.203 31.6713 109.434 29.9405 108.004 28.6287C106.575 27.3169 104.742 26.661 102.506 26.661C100.307 26.661 98.4742 27.3351 97.0081 28.6833C95.5786 30.0316 94.7172 31.7442 94.424 33.8212Z" fill="#93DD2C"/>
<path d="M127.698 49.3441H122.255V33.3839C122.255 30.0316 123.189 27.2987 125.059 25.1852C126.965 23.0718 129.622 22.0151 133.031 22.0151C134.9 22.0151 136.513 22.343 137.869 22.9989V28.3554C136.549 27.5902 135.102 27.2076 133.526 27.2076C131.73 27.2076 130.3 27.7906 129.237 28.9566C128.211 30.0862 127.698 31.6349 127.698 33.6026V49.3441Z" fill="#93DD2C"/>
<path fill-rule="evenodd" clip-rule="evenodd" d="M143.819 3.75774C143.819 1.6824 142.126 0 140.039 0H130.417C128.33 0 126.637 1.6824 126.637 3.75774V13.4458C126.637 15.5211 128.33 17.2035 130.417 17.2035H140.039C142.126 17.2035 143.819 18.8859 143.819 20.9612V30.4036C143.819 32.4789 145.511 34.1613 147.599 34.1613H157.22C159.308 34.1613 161 32.4789 161 30.4036V20.7154C161 18.6401 159.308 16.9578 157.22 16.9578H147.599C145.511 16.9578 143.819 15.2754 143.819 13.2V3.75774Z" fill="#93DD2C"/>
<path d="M135.175 5.23807V9.83846H137.905V11.3871H134.946C134.426 11.3871 134.051 11.2596 133.818 11.0045C133.592 10.7494 133.479 10.4063 133.479 9.9751V5.23807H135.175Z" fill="#F3EFF5"/>
<path d="M151.928 28.8473H150.233V24.1103C150.233 23.6791 150.346 23.336 150.572 23.0809C150.804 22.8258 151.18 22.6983 151.699 22.6983H154.815V24.2469H151.928V28.8473ZM154.604 26.9889H151.562L151.333 25.4403H154.604V26.9889Z" fill="#F3EFF5"/>
</svg>
